@startuml

package "Frontend (Nuxt)" {
    class LoginComponent {
        + username: string
        + password: string
        + login(): void
    }

    class RegisterComponent {
        + username: string
        + password: string
        + name: string
        + register(): void
    }

    class PortfolioComponent {
        + addStock(stock: Stock): void
        + removeStock(stockId: string): void
        + viewPortfolio(): Stock[]
    }

    class Stock {
        + id: string
        + name: string
        + symbol: string
        + price: number
    }
}

package "Backend (Flask)" {
   class AuthController {
       + register(username: string, password: string, name: string): dict
       + login(username: string, password: string): dict
       + generate_token(user_id: string): Token
       + verify_token(token: string): dict
   }

    class PortfolioController {
        + getPortfolio(userId: string): Portfolio
        + addStock(userId: string, stock: Stock): void
        + removeStock(userId: string, stockId: string): void
    }

    class User {
        + id: string
        + username: string
        + password_hash: string
        + name: string
        + create_user(username: string, password: string, name: string): User
        + get_by_username(username: string): User
        + check_password(password: string): boolean
    }

    class Portfolio {
        + userId: string
        + stocks: Stock[]
    }

    class JWT {
        + encode(payload: dict, secret: string, algorithm: string): string
        + decode(token: string, secret: string, algorithms: list): dict
    }
}

package "Database (SQLite)" {
    class UserCollection {
        + _id: ObjectId
        + username: string
        + name: sting
        + passwordHash: string
    }

    class PortfolioCollection {
        + _id: ObjectId
        + userId: ObjectId
        + stocks: Stock[]
    }
}

"LoginComponent" --> "AuthController": uses
"RegisterComponent" --> "AuthController": uses
"PortfolioComponent" --> "PortfolioController": uses
"AuthController" ..> "User": uses
"AuthController" --> JWT : uses
"AuthController" --> "UserCollection": accesses
"PortfolioController" --> "PortfolioCollection": accesses

@enduml
